<svg viewBox="0 0 80 28" xmlns="http://www.w3.org/2000/svg"><path id="goal-logo-frame" d="M79.328 0H1.019C.456 0 0 .455 0 1.017V28h5.241V5.11h69.524V28H80V.67c0-.37-.302-.67-.672-.67Z" fill="#fff"></path><path id="goal-logo-ball" d="M71.438 11.27c0-1.511-1.199-2.742-2.67-2.742-1.472 0-2.669 1.23-2.669 2.742s1.197 2.743 2.67 2.743c1.47 0 2.669-1.23 2.669-2.742Z" fill="#fff"></path><path id="goal-logo-letter-g" d="m21.812 22.117 2.363.007-.005 2.075a.317.317 0 0 1-.133.26 4.46 4.46 0 0 1-2.64.817c-2.483-.007-4.351-1.89-4.345-4.38.007-2.45 1.876-4.364 4.255-4.358 1.152.003 2.25.472 3.097 1.32a.215.215 0 0 0 .31-.003l1.668-1.753a.215.215 0 0 0-.005-.303c-1.312-1.274-3.103-1.98-5.044-1.985-2.05-.006-3.916.722-5.253 2.047-1.313 1.3-2.038 3.085-2.044 5.026-.011 4.043 3.125 7.1 7.296 7.112 2.363.007 4.478-.951 5.803-2.627.03-.11.046-.224.047-.34l.015-5.41a.217.217 0 0 0-.215-.217l-5.163-.014a.216.216 0 0 0-.217.216l-.006 2.292c0 .12.096.218.216.218Z" fill="#fff"></path><path id="goal-logo-letter-o" d="M35.78 13.813c-4.105 0-7.2 3.049-7.2 7.093 0 4.043 3.095 7.092 7.2 7.092s7.2-3.049 7.2-7.092c0-4.043-3.095-7.093-7.2-7.093Zm0 11.462c-2.346 0-4.185-1.919-4.185-4.368 0-2.45 1.839-4.369 4.185-4.369 2.346 0 4.185 1.919 4.185 4.369 0 2.448-1.839 4.368-4.185 4.368Z" fill="#fff"></path><path id="goal-logo-letter-a" d="m48.199 14.136-5.773 13.446a.161.161 0 0 0 .148.225h2.78a.215.215 0 0 0 .2-.131l1.178-2.764a.108.108 0 0 1 .1-.066h4.948a.11.11 0 0 1 .1.066l1.178 2.764c.034.08.112.13.199.13h2.698c.155 0 .26-.158.198-.3l-5.74-13.371a.218.218 0 0 0-.2-.132h-1.817a.217.217 0 0 0-.197.133Zm2.39 7.987h-2.585a.054.054 0 0 1-.05-.075l1.293-3.001a.054.054 0 0 1 .1 0l1.292 3a.054.054 0 0 1-.05.076Z" fill="#fff"></path><path id="goal-logo-letter-l" d="M60.298 25.083V14.22a.216.216 0 0 0-.217-.216h-2.583a.216.216 0 0 0-.216.216V27.59c0 .12.096.216.216.216h8.228c.12 0 .217-.097.217-.216v-2.4a.108.108 0 0 0-.108-.108h-5.537Z" fill="#fff"></path><path id="goal-logo-registered-trademark-symbol" d="M2.317 24.823v.447h.335c.113 0 .171-.018.21-.054a.233.233 0 0 0 .072-.17.235.235 0 0 0-.072-.17c-.039-.036-.096-.054-.21-.054h-.335Zm.342-.055c.117 0 .188.021.236.061.064.052.099.13.099.218a.28.28 0 0 1-.099.217c-.048.04-.12.061-.236.061h-.015l.482.602H3.06l-.482-.602h-.261v.602h-.06V24.77h.402Zm-.04 1.592a1 1 0 0 0 .995-1.005c0-.553-.446-1.004-.994-1.004a1 1 0 0 0-.995 1.004c0 .554.446 1.005.995 1.005Zm0-2.063c.58 0 1.05.474 1.05 1.058 0 .585-.47 1.06-1.05 1.06a1.054 1.054 0 0 1-1.048-1.06c0-.583.47-1.058 1.049-1.058Z" fill="#000"></path></svg>